# ProBuilder 4.4.0
# https://unity3d.com/unity/features/worldbuilding/probuilder
# 2021-04-13 AM 10:08:40

mtllib ./Cube_2.mtl
o Cube_2

g New Game Object (1)
v 0.01198578 0.1883473 -0.0002784729
v -0.001502991 0.1883473 -1.160728
v -0.3004265 0.1883473 -1.167677
v -0.3028374 0.1883473 0.004627228
v -0.3028374 0 0.004627228
v -0.3004265 0 -1.167677
v -0.001502991 0 -1.160728
v 0.01198578 0 -0.0002784729

vt -0.01198578 -0.0002784729
vt 0.001502991 -1.160728
vt 0.3004265 -1.167677
vt 0.3028374 0.004627228
vt -0.3028374 0.004627228
vt -0.3004265 -1.167677
vt -0.001502991 -1.160728
vt 0.01198578 -0.0002784729
vt 0.005250013 0
vt -1.167057 0
vt 0.005250013 0.1883473
vt -1.167057 0.1883473
vt 0.3274806 0
vt 0.02847641 0
vt 0.3274806 0.1883473
vt 0.02847641 0.1883473
vt 1.160668 0
vt 0.0001391439 0
vt 1.160668 0.1883473
vt 0.0001391439 0.1883473
vt -0.3028727 0
vt 0.01198866 0.1883473
vt -0.3028727 0.1883473

vn 0 1 0
vn 0 -1 0
vn -0.9999979 0 -0.002056534
vn 0.0232387 0 -0.9997299
vn 0.9999325 0 -0.01162296
vn 0.01558051 0 0.9998786

usemtl Obj
f 1/1/1 2/2/1 3/3/1 4/4/1
f 5/5/2 6/6/2 7/7/2 8/8/2
f 4/11/3 3/12/3 6/10/3 5/9/3
f 3/15/4 2/16/4 7/14/4 6/13/4
f 2/19/5 1/20/5 8/18/5 7/17/5
f 1/22/6 4/23/6 5/21/6 8/8/6

