# ProBuilder 4.4.0
# https://unity3d.com/unity/features/worldbuilding/probuilder
# 2021-04-08 PM 2:40:54

mtllib ./Triangle_Col.mtl
o Triangle_Col

g New Game Object (1)
v 0.1293428 13.9124 -0.003779912
v -28.83839 13.9124 27.98789
v 28.3523 13.9124 28.10182
v -28.83839 2.91845E-06 27.98789
v 0.1293428 3.815301E-06 -0.003780365
v 28.3523 2.884446E-06 28.10182

vt -0.1293428 -0.003780385
vt 28.83839 27.98789
vt -28.3523 28.10182
vt -28.83839 27.98789
vt 0.1293428 -0.003780365
vt 28.3523 28.10182
vt 40.18665 2.91845E-06
vt -0.0956397 3.815301E-06
vt 40.18665 13.9124
vt -0.09563939 13.9124
vt -0.08898197 3.813132E-06
vt -39.91938 2.882277E-06
vt -0.08898229 13.9124
vt -39.91938 13.9124
vt 28.40823 2.884446E-06
vt -28.78258 2.91845E-06
vt 28.40823 13.9124
vt -28.78258 13.9124

vn -6.773345E-11 1 3.399984E-08
vn -5.296467E-10 -1 -3.258805E-08
vn -0.6948877 0 -0.7191183
vn 0.7056321 2.30883E-08 -0.7085785
vn -0.001992166 0 0.999998

usemtl ProBuilderDefault
f 3/3/1 1/1/1 2/2/1
f 4/4/2 5/5/2 6/6/2
f 1/10/3 5/8/3 4/7/3
f 4/7/3 2/9/3 1/10/3
f 3/14/4 6/12/4 5/11/4
f 5/11/4 1/13/4 3/14/4
f 2/18/5 4/16/5 6/15/5
f 6/15/5 3/17/5 2/18/5

